<svg height="908" viewBox="-21 -71 681.33428 681" width="908" xmlns="http://www.w3.org/2000/svg"><path d="M178.273 21.195C144.961 4.93 100.375-11.719 63.253 1.605c-23.89 8.583-34.472 31.38-33.378 55.649.492 10.922 3.89 22.559-.254 33.172-4.25 10.875-15.18 16.886-21.539 26.308-9.504 14.075-12.309 35.801.898 48.582 15.723 15.211 42.22 6.172 59.774-.445zm282.204 0c33.308-16.265 77.898-32.914 115.02-19.59 23.894 8.583 34.472 31.38 33.382 55.649-.492 10.922-3.895 22.559.254 33.172 4.246 10.875 15.18 16.886 21.539 26.308 9.5 14.075 12.305 35.801-.902 48.582-15.723 15.211-42.22 6.172-59.77-.445zm0 0" fill="#4f4c5f"/><path d="M549.57 416.484c99.395-171.847-11.558-463.097-218.3-408.48a46.42 46.42 0 0 1-23.79 0C100.742-46.613-10.215 244.637 89.18 416.484zm0 0" fill="#e8a882"/><path d="M127.738 416.477C40.058 264.895 116.058 20.402 277.102 2.352 90.137-17.668-5.23 253.262 89.18 416.477h460.39zm0 0" fill="#de8957"/><path d="M159.277 491.887c40.528 27.207 93.407 43.722 160.098 43.722 66.676 0 119.55-16.504 160.074-43.707V429.73H159.277zm0 0" fill="#e8a882"/><path d="M197.836 479.035V429.73h-38.559v62.157c40.528 27.207 93.407 43.722 160.098 43.722 7.492 0 14.79-.218 21.934-.629-58.918-4.335-106.372-31.035-143.473-55.945zm121.539-312.957c-13.922 0-27.844-3.219-40.54-9.664-19.917-10.105-43.702-10.105-63.624 0a9.636 9.636 0 0 1-12.961-4.226c-2.406-4.754-.512-10.551 4.234-12.961 25.387-12.88 55.696-12.88 81.078 0 19.918 10.109 43.704 10.109 63.625 0 25.387-12.88 55.7-12.88 81.079 0 4.746 2.41 6.64 8.207 4.234 12.96-2.414 4.747-8.21 6.641-12.957 4.227-19.922-10.105-43.711-10.105-63.633 0-12.687 6.445-26.613 9.664-40.535 9.664zm0-65.871a66.262 66.262 0 0 1-29.95-7.133c-13.288-6.75-29.163-6.75-42.452 0-4.746 2.406-10.547.512-12.957-4.234-2.407-4.75-.512-10.55 4.234-12.961 18.754-9.516 41.145-9.516 59.902 0 13.29 6.746 29.157 6.746 42.45 0 18.753-9.516 41.148-9.516 59.898 0 4.746 2.41 6.645 8.21 4.234 12.96-2.41 4.747-8.21 6.641-12.957 4.235-13.289-6.75-29.16-6.746-42.449 0-9.379 4.754-19.664 7.133-29.953 7.133zm0 0" fill="#de8957"/><path d="M251.875 259.988c0-37.46-32.21-67.828-71.95-67.828-39.73 0-71.945 30.367-71.945 67.828 0 37.465 32.215 67.832 71.946 67.832 39.738 0 71.949-30.367 71.949-67.832zm278.895 0c0-37.46-32.215-67.828-71.946-67.828-39.738 0-71.949 30.367-71.949 67.828 0 37.465 32.21 67.832 71.95 67.832 39.73 0 71.945-30.367 71.945-67.832zm0 0" fill="#5c586f"/><path d="M360.734 258.914C439.813 270.445 508 314.621 540.828 377.957c19.902 38.406 4.906 85.664-33.5 105.574-25.437 13.18-54.765 11.051-77.465-3.047-32.52-20.222-70.277-30.453-108.582-30.453h-3.812c-38.82 0-76.524 11.38-109.875 31.235a78.701 78.701 0 0 1-40.196 11.066c-12.14 0-24.46-2.836-35.976-8.8-38.406-19.91-53.406-67.169-33.496-105.583 32.824-63.328 101.011-107.508 180.09-119.035zm0 0" fill="#4f4c5f"/><path d="M360.734 258.914c-1.535 21.496-19.453 38.465-41.359 38.465-21.89 0-39.824-16.969-41.36-38.465 13.516-1.98 27.344-3 41.36-3s27.848 1.02 41.36 3zm-180.808 5.446c-5.32 0-9.637-4.317-9.637-9.641v-20.735c0-5.32 4.316-9.64 9.637-9.64 5.328 0 9.64 4.32 9.64 9.64v20.735a9.638 9.638 0 0 1-9.64 9.64zm278.898 0a9.638 9.638 0 0 1-9.64-9.641v-20.735c0-5.32 4.312-9.64 9.64-9.64 5.32 0 9.633 4.32 9.633 9.64v20.735c0 5.324-4.312 9.64-9.633 9.64zm0 0" fill="#423e4f"/><path d="M228.938 370.836c0 5.48-4.446 9.926-9.926 9.926-5.485 0-9.93-4.446-9.93-9.926 0-5.484 4.445-9.926 9.93-9.926 5.48 0 9.925 4.442 9.925 9.926zm-37.063 0c0 5.48-4.445 9.926-9.926 9.926-5.484 0-9.926-4.446-9.926-9.926a9.923 9.923 0 0 1 9.926-9.926c5.48 0 9.926 4.442 9.926 9.926zm18.527 19.852c0 5.484-4.441 9.93-9.925 9.93-5.48 0-9.926-4.446-9.926-9.93 0-5.481 4.445-9.926 9.926-9.926 5.484 0 9.925 4.445 9.925 9.925zm219.266-19.852c0 5.48-4.445 9.926-9.926 9.926-5.484 0-9.93-4.446-9.93-9.926 0-5.484 4.446-9.926 9.93-9.926 5.48 0 9.926 4.442 9.926 9.926zm37.062 0c0 5.48-4.445 9.926-9.93 9.926-5.48 0-9.925-4.446-9.925-9.926 0-5.484 4.445-9.926 9.926-9.926 5.484 0 9.93 4.442 9.93 9.926zm-18.53 19.852c0 5.484-4.442 9.93-9.927 9.93-5.48 0-9.925-4.446-9.925-9.93 0-5.481 4.445-9.926 9.925-9.926a9.924 9.924 0 0 1 9.926 9.925zm0 0" fill="#5c586f"/></svg>