<svg xmlns="http://www.w3.org/2000/svg" height="512" viewBox="-1 0 512 512" width="512"><path d="M509.977 456.137l-12.055-241.102c-1.496-29.98-27.137-54.367-57.152-54.367h-89.434V135.5c0-30.418-24.75-55.168-55.168-55.168h-45.25V75.25c0-41.492-33.758-75.25-75.25-75.25s-75.25 33.758-75.25 75.25v5.082h-45.25C24.746 80.332 0 105.082 0 135.5v321.332C0 487.254 24.75 512 55.168 512h401.668c14.832 0 28.555-5.84 38.644-16.445 10.086-10.606 15.239-24.606 14.497-39.418zM130.418 75.25c0-24.95 20.3-45.25 45.25-45.25s45.25 20.3 45.25 45.25v5.082h-90.5zM30 456.832V135.5c0-13.879 11.29-25.168 25.168-25.168h241c13.879 0 25.168 11.29 25.168 25.168v25.168h-73.367c-30.02 0-55.656 24.39-57.153 54.367l-12.058 241.102c-.453 9.133 1.336 17.953 5.133 25.863H55.168C41.289 482 30 470.71 30 456.832zm443.742 18.047c-4.367 4.594-10.37 7.121-16.906 7.121H231.902c-6.535 0-12.543-2.527-16.91-7.121-4.37-4.594-6.597-10.719-6.27-17.246l12.055-241.102c.7-14.02 13.153-25.863 27.192-25.863h192.8c14.04 0 26.489 11.844 27.188 25.863l12.059 241.102c.324 6.527-1.903 12.652-6.274 17.246zm0 0" data-original="#000000" class="active-path" data-old_color="#000000" fill="#88bbb1"/><path d="M404.617 241c-8.281 0-15 6.715-15 15v20.082c0 24.953-20.297 45.25-45.25 45.25-24.949 0-45.25-20.297-45.25-45.25V256c0-8.285-6.715-15-15-15-8.281 0-15 6.715-15 15v20.082c0 41.492 33.758 75.25 75.25 75.25s75.25-33.758 75.25-75.25V256c0-8.285-6.715-15-15-15zm0 0" data-original="#000000" class="active-path" data-old_color="#000000" fill="#88bbb1"/></svg>